<?xml version="1.0" encoding="UTF-8"?> <svg xmlns="http://www.w3.org/2000/svg" width="97" height="58" viewBox="0 0 97 58" fill="none"><path d="M38.3507 39.9586C37.9321 36.1129 37.4759 33.6811 37.0635 29.8354C36.9098 28.4076 34.6816 11.9829 34.4392 9.79261C34.3554 9.03385 33.9093 8.61273 33.1632 8.46351C32.9171 8.42545 32.6686 8.40517 32.4197 8.40281C30.3939 8.28646 26.4586 8.41419 24.3816 8.35728C23.4494 8.33072 22.747 8.85174 22.6083 10.024C22.5046 10.8903 22.3309 11.773 22.2159 12.638C22.016 14.134 21.4786 18.3022 20.9225 22.6752C20.2839 27.6969 19.6228 32.9893 19.4229 34.8154C19.1304 37.5457 18.7168 40.4986 18.3819 43.2225C18.2019 44.6869 17.997 46.2879 17.8332 47.7549C17.6958 48.9879 18.0832 49.3913 19.1804 49.3989C20.0552 49.3989 23.4019 49.3685 24.2729 49.3711C25.3052 49.3711 25.8188 49.1245 25.95 48.1064C26.0337 47.4463 26.1999 45.7732 26.4249 43.6879C26.5636 42.3993 26.6486 41.791 26.6923 41.4888C26.836 40.4771 27.106 40.1748 27.8058 40.0332C28.5556 39.8814 29.4604 39.9712 29.8441 40.3278C30.1552 40.6174 30.3314 41.1549 30.5164 42.8672C30.7201 44.7641 30.8463 46.1615 31.12 47.9926C31.2512 48.8677 31.3524 49.2889 32.2447 49.304C33.012 49.3179 37.2535 49.3496 38.082 49.323C39.093 49.2901 39.3742 49.022 39.2842 48.0293C39.078 45.8327 38.5882 42.1501 38.3507 39.9586ZM29.4029 29.6621C29.1392 29.9884 27.8558 29.9694 27.6233 29.6242C27.3909 29.279 27.4409 28.3444 27.5334 27.1392C27.6583 25.5446 27.7696 23.3454 27.9983 21.7647C28.0907 21.1324 28.1132 20.753 28.5181 20.753C28.893 20.753 28.9655 21.0274 29.0617 21.9012C29.1742 22.9129 29.3892 25.4308 29.5016 27.1607C29.5766 28.3103 29.6728 29.3359 29.4029 29.6621Z" fill="black"></path><path d="M92.73 30.3868C92.7237 28.9161 92.1389 29.2133 90.658 29.2133C90.0981 29.2133 88.5335 29.3688 88.1236 28.9793C87.9361 28.7985 87.9449 27.3024 87.9337 26.9825C87.9049 26.2986 87.9174 25.6136 87.9711 24.9313C87.9949 24.5317 87.9374 24.1093 88.1436 23.9196C88.3498 23.7299 88.8197 23.7691 89.2196 23.7603C89.8832 23.7464 90.4055 23.7438 91.0704 23.7362C92.0326 23.7236 92.0701 23.3442 92.1526 22.373C92.2295 21.5094 92.2432 20.6412 92.1939 19.7755C92.1576 19.171 92.0439 18.416 91.444 18.3667C90.7667 18.3123 89.8344 18.3667 89.2971 18.3667C88.8747 18.3667 88.3735 18.4173 88.1498 18.1138C87.8512 17.7268 87.9087 16.3876 87.9087 15.8046C87.9087 15.2216 87.8749 14.7398 88.1586 14.5286C88.3823 14.3655 88.8659 14.4224 89.3121 14.4199C90.0169 14.4199 90.7255 14.4401 91.4265 14.3819C92.2563 14.3149 92.6587 13.9659 92.7262 13.1477C92.8145 11.9856 92.8354 10.8193 92.7887 9.65482C92.7625 9.04781 92.4063 8.50529 91.7565 8.40539C90.8575 8.26034 89.9487 8.18634 89.0384 8.18408C87.2138 8.19673 82.38 8.25364 81.7402 8.28019C80.8254 8.31813 80.0656 8.58117 80.0656 9.92418C80.0656 11.0889 80.1118 11.7857 80.1093 12.9504C80.0956 19.4872 80.0656 27.0697 80.0568 33.6065C80.0568 37.5002 79.9869 46.0642 79.9681 46.9772C79.9544 47.6841 79.8944 48.5289 80.1618 48.9121C80.4767 49.3648 81.3278 49.2649 82.0613 49.2737C85.0294 49.3117 87.9549 49.2737 91.1241 49.2851C91.5478 49.2851 92.1326 49.3256 92.4463 48.9867C92.66 48.7552 92.685 48.214 92.685 47.8903C92.685 47.3111 92.685 46.7723 92.685 46.2387C92.71 43.4148 92.7425 33.3017 92.73 30.3868Z" fill="black"></path><path d="M16.6059 30.106C16.5159 29.8354 16.356 29.5458 15.9973 29.432C15.2725 29.2094 14.0515 29.2094 13.2767 29.2094C12.8093 29.2094 12.1682 29.2651 11.9858 28.9653C11.8033 28.6656 11.8396 27.53 11.8446 27.3024C11.9458 23.3492 11.9583 17.5156 12.0445 13.5624C12.0695 12.3775 12.0558 11.1887 11.9845 10.0063C11.9246 8.9858 11.4984 8.4142 10.7561 8.38384C9.03651 8.31429 6.51963 8.29785 5.59735 8.29785C4.67508 8.29785 4.44388 8.8821 4.3839 9.20331C4.26956 9.88945 4.22766 10.586 4.25893 11.2811C4.28142 12.987 4.33891 14.6955 4.34891 16.3951C4.3789 21.0603 4.35891 26.7649 4.35891 31.4339H4.3714C4.3714 31.8714 4.3714 32.309 4.3714 32.7465C4.3714 37.7013 4.35641 41.6114 4.35266 46.5674C4.35266 47.7448 4.33516 48.5301 4.68258 48.9145C5.05748 49.3357 5.85729 49.2939 7.12698 49.2648C8.93029 49.2193 10.7361 49.2876 12.5419 49.3028C13.268 49.3091 14.6164 49.3445 15.3412 49.3028C16.1135 49.2623 16.5259 48.8703 16.6009 48.1077C16.6684 47.386 16.6984 46.6613 16.6909 45.9364C16.6834 44.9804 16.5897 44.023 16.5997 43.067C16.6446 38.5486 16.7184 35.9131 16.7671 31.3959C16.7849 30.9599 16.7304 30.5239 16.6059 30.106Z" fill="black"></path><path d="M75.9776 8.28524C74.7279 8.29788 73.1608 8.28524 71.9074 8.29662C71.5556 8.29329 71.2041 8.31867 70.8564 8.3725C70.1065 8.49896 69.5379 8.85937 69.4705 9.65481C69.4155 10.2947 69.5454 13.4031 69.5479 14.4211C69.5667 19.6869 69.5567 24.954 69.5579 30.2199C69.5579 35.9245 69.5579 41.8252 69.5642 47.5286C69.5642 48.9335 69.7591 49.2573 71.0888 49.28C72.7134 49.3079 75.0004 49.2687 76.6287 49.28C77.6072 49.2864 77.9871 48.9146 78.0334 47.98C78.0634 47.3781 78.0446 46.7736 78.0509 46.1704C78.1596 33.2473 77.8872 19.6136 78.1333 10.6071C78.1546 9.81541 78.1958 9.13253 77.9122 8.76958C77.546 8.30168 77.0611 8.27512 75.9776 8.28524Z" fill="black"></path><path d="M63.4009 8.07661C59.1519 7.51007 58.0934 10.8056 57.621 13.8938C57.3111 15.9172 57.1212 18.3933 56.8837 20.4938C56.6875 22.1808 56.4576 24.1144 56.0464 24.1144C55.6353 24.1144 55.4053 22.1808 55.2104 20.4938C54.9604 18.3933 54.783 15.921 54.4731 13.8938C54.0007 10.8056 52.9422 7.51007 48.6932 8.07661C46.5063 8.36874 44.1868 9.98743 44.1868 15.2609C44.1868 21.178 46.1938 28.1434 47.8409 32.6985C50.9389 41.265 53.6782 48.4467 54.2431 49.2738C54.5743 49.7568 55.3678 50.0123 56.0464 50.0123C56.725 50.0123 57.5198 49.7594 57.8497 49.2738C58.4158 48.4467 61.1552 41.265 64.2532 32.6985C65.899 28.1459 67.9073 21.178 67.9073 15.2609C67.9135 9.98743 65.5878 8.36874 63.4009 8.07661Z" fill="black"></path></svg> 